<?xml version="1.0" encoding="UTF-8" standalone="no"?>
<!DOCTYPE svg PUBLIC "-//W3C//DTD SVG 1.1//EN"
 "http://www.w3.org/Graphics/SVG/1.1/DTD/svg11.dtd">
<!-- Generated by graphviz version 2.38.0 (20140413.2041)
 -->
<!-- Title: %3 Pages: 1 -->
<svg width="233pt" height="332pt"
 viewBox="0.00 0.00 233.35 332.00" xmlns="http://www.w3.org/2000/svg" xmlns:xlink="http://www.w3.org/1999/xlink">
<g id="graph0" class="graph" transform="scale(1 1) rotate(0) translate(4 328)">
<title>%3</title>
<polygon fill="white" stroke="none" points="-4,4 -4,-328 229.345,-328 229.345,4 -4,4"/>
<!-- y -->
<g id="node1" class="node"><title>y</title>
<ellipse fill="none" stroke="black" cx="126" cy="-18" rx="27" ry="18"/>
<text text-anchor="middle" x="126" y="-14.3" font-family="Times,serif" font-size="14.00">y</text>
</g>
<!-- Mul (Op 0) -->
<g id="node2" class="node"><title>Mul (Op 0)</title>
<ellipse fill="none" stroke="black" cx="126" cy="-90" rx="51.9908" ry="18"/>
<text text-anchor="middle" x="126" y="-86.3" font-family="Times,serif" font-size="14.00">Mul (Op 0)</text>
</g>
<!-- Mul (Op 0)&#45;&gt;y -->
<g id="edge1" class="edge"><title>Mul (Op 0)&#45;&gt;y</title>
<path fill="none" stroke="black" d="M126,-71.6966C126,-63.9827 126,-54.7125 126,-46.1124"/>
<polygon fill="black" stroke="black" points="129.5,-46.1043 126,-36.1043 122.5,-46.1044 129.5,-46.1043"/>
</g>
<!-- h1 -->
<g id="node3" class="node"><title>h1</title>
<ellipse fill="none" stroke="black" cx="78" cy="-162" rx="27" ry="18"/>
<text text-anchor="middle" x="78" y="-158.3" font-family="Times,serif" font-size="14.00">h1</text>
</g>
<!-- h1&#45;&gt;Mul (Op 0) -->
<g id="edge2" class="edge"><title>h1&#45;&gt;Mul (Op 0)</title>
<path fill="none" stroke="black" d="M88.8919,-145.116C94.7369,-136.592 102.078,-125.886 108.685,-116.251"/>
<polygon fill="black" stroke="black" points="111.713,-118.024 114.482,-107.797 105.94,-114.065 111.713,-118.024"/>
</g>
<!-- constant 20 -->
<g id="node4" class="node"><title>constant 20</title>
<ellipse fill="none" stroke="black" cx="174" cy="-162" rx="51.1914" ry="18"/>
<text text-anchor="middle" x="174" y="-158.3" font-family="Times,serif" font-size="14.00">constant 20</text>
</g>
<!-- constant 20&#45;&gt;Mul (Op 0) -->
<g id="edge3" class="edge"><title>constant 20&#45;&gt;Mul (Op 0)</title>
<path fill="none" stroke="black" d="M162.625,-144.411C156.91,-136.077 149.861,-125.797 143.478,-116.488"/>
<polygon fill="black" stroke="black" points="146.169,-114.224 137.627,-107.956 140.396,-118.183 146.169,-114.224"/>
</g>
<!-- Add (Op 1) -->
<g id="node5" class="node"><title>Add (Op 1)</title>
<ellipse fill="none" stroke="black" cx="78" cy="-234" rx="51.9908" ry="18"/>
<text text-anchor="middle" x="78" y="-230.3" font-family="Times,serif" font-size="14.00">Add (Op 1)</text>
</g>
<!-- Add (Op 1)&#45;&gt;h1 -->
<g id="edge4" class="edge"><title>Add (Op 1)&#45;&gt;h1</title>
<path fill="none" stroke="black" d="M78,-215.697C78,-207.983 78,-198.712 78,-190.112"/>
<polygon fill="black" stroke="black" points="81.5001,-190.104 78,-180.104 74.5001,-190.104 81.5001,-190.104"/>
</g>
<!-- x -->
<g id="node6" class="node"><title>x</title>
<ellipse fill="none" stroke="black" cx="27" cy="-306" rx="27" ry="18"/>
<text text-anchor="middle" x="27" y="-302.3" font-family="Times,serif" font-size="14.00">x</text>
</g>
<!-- x&#45;&gt;Add (Op 1) -->
<g id="edge5" class="edge"><title>x&#45;&gt;Add (Op 1)</title>
<path fill="none" stroke="black" d="M38.3186,-289.465C44.5829,-280.867 52.5216,-269.97 59.6494,-260.187"/>
<polygon fill="black" stroke="black" points="62.5823,-262.105 65.6421,-251.962 56.9247,-257.983 62.5823,-262.105"/>
</g>
<!-- constant 10.0 -->
<g id="node7" class="node"><title>constant 10.0</title>
<ellipse fill="none" stroke="black" cx="130" cy="-306" rx="57.6901" ry="18"/>
<text text-anchor="middle" x="130" y="-302.3" font-family="Times,serif" font-size="14.00">constant 10.0</text>
</g>
<!-- constant 10.0&#45;&gt;Add (Op 1) -->
<g id="edge6" class="edge"><title>constant 10.0&#45;&gt;Add (Op 1)</title>
<path fill="none" stroke="black" d="M117.677,-288.411C111.422,-279.992 103.692,-269.585 96.7205,-260.201"/>
<polygon fill="black" stroke="black" points="99.3689,-257.897 90.596,-251.956 93.7497,-262.071 99.3689,-257.897"/>
</g>
</g>
</svg>
